<svg xmlns="http://www.w3.org/2000/svg" xmlns:xlink="http://www.w3.org/1999/xlink" id="Layer_1" x="0px" y="0px" viewBox="0 0 940 128" style="enable-background:new 0 0 940 128;" xml:space="preserve"> <style type="text/css"> .st0{fill:#FED42B;} .st1{clip-path:url(#SVGID_2_);} </style> <circle class="st0" cx="461" cy="64" r="60"></circle> <path d="M51.1,109h15.7V18.6H43.9c-23,0-35.1,11.8-35.1,29.3c0,13.9,6.6,22.1,18.5,30.5L6.8,109h17l22.9-34.2l-7.9-5.3 C29.1,63,24.4,57.9,24.4,47c0-9.6,6.8-16.1,19.6-16.1h7V109z M354.4,110.3c7.1,0,12.2-1.3,16-4V93.7c-3.9,2.7-8.6,4.4-15.1,4.4 c-11.1,0-15.6-8.6-15.6-22.1c0-14.2,5.6-21.5,15.7-21.5c6,0,11.8,2.1,14.9,4V45.4c-3.2-1.8-9-3.1-16.6-3.1c-19.8,0-30,14.2-30,34.1 C323.7,98.2,333.7,110.3,354.4,110.3z M257.7,104.6V92c-4.8,3.2-12.9,6.1-20.4,6.1c-11.3,0-15.6-5.3-16.2-16.2h37.3v-8.2 c0-22.8-10-31.3-25.5-31.3C214,42.3,205,56.7,205,76.5c0,22.8,11.2,33.8,30.9,33.8C245.8,110.3,253.1,107.7,257.7,104.6z M116,43.6 v25.9H95.3V43.6H79.8V109h15.5V81.7H116V109h15.5V43.6H116z M201.2,96.8h-6.9V43.6h-45.1v5.6c0,16-1,36.7-6.5,47.6h-4.8v27.2h14.3 V109h34.7v14.9h14.3V96.8z M307.1,109h17.5l-24.8-35.2l21.8-30.2H306l-21.8,30.2V43.6h-15.5V109h15.5V76.9L307.1,109z M232.6,54.5 c7.7,0,10,6.4,10,14.6v1.3H221C221.4,60,225.2,54.5,232.6,54.5z M178.9,96.8H157c4.3-9.9,5.5-27.7,5.5-39v-1.9h16.4V96.8z"></path> <g> <defs> <path id="SVGID_1_" d="M461,124c33.1,0,60-26.9,60-60c0-33.1-26.9-60-60-60c-33.1,0-60,26.9-60,60C401,97.1,427.9,124,461,124z"></path> </defs> <clipPath id="SVGID_2_"> <use xlink:href="#SVGID_1_" style="overflow:visible;"></use> </clipPath> <path class="st1" d="M431.5,36.7l-52.5,69l14.1,16.2L432.4,70l-3.9,28.4l22,7.5L476.7,63c-1.3,8.1-3.4,26.5,14.5,31.9 c27.6,8.3,51.5-41.2,62.8-66.4L538.1,20c-12.3,25.9-31.6,54.8-39.1,52.7c-7.5-2.1-0.7-26.3,3.6-42l0.1-0.2l-24.4-8.2l-29,47.7 l3.9-25.8L431.5,36.7z"></path> </g> <path d="M584.8,109h13l18.5-68.2V109h14.8V18.6h-20.4l-18.3,66.6l-18.1-66.6h-20.8V109h12.9V40.8L584.8,109z M693,64.4 c0-15.9-8.1-21.8-24.4-21.8c-10.3,0-18.3,3.2-23,6v12.9c4.2-3.1,13.3-6.5,21.2-6.5c7.4,0,10.8,2.6,10.8,9.6v3.6h-2.5 c-23.7,0-34.2,7.8-34.2,21.1s8.1,20.7,20,20.7c9.1,0,13-3,16-6.1h0.6c0.1,1.7,0.7,3.9,1.2,5.2h15.1c-0.5-5.3-0.8-10.7-0.8-16V64.4z M677.6,93.4c-2,2.9-5.6,5.2-11,5.2c-6.5,0-9.8-3.9-9.8-9.8c0-7.7,5.3-10.4,18.6-10.4h2.2V93.4z M719.8,43.6h-14.3v84.2h15.5v-26.5 c3.9,5.8,9.6,9,16.2,9c15.1,0,25.5-12.1,25.5-34.1c0-21.8-10.1-33.9-24.7-33.9c-7.3,0-13.3,3.4-17.4,9.8L719.8,43.6z M733.3,98.1 c-8.2,0-12.4-6.6-12.4-21.7c0-15.2,4.4-21.8,13.1-21.8c8.5,0,12.6,6.6,12.6,21.7C746.7,91.4,742.3,98.1,733.3,98.1z M811.4,109h17.5 l-24.8-35.2l21.8-30.2h-15.6l-21.8,30.2V43.6H773V109h15.5V76.9L811.4,109z M880.9,104.6V92c-4.8,3.2-12.9,6.1-20.4,6.1 c-11.3,0-15.6-5.3-16.2-16.2h37.3v-8.2c0-22.8-10-31.3-25.5-31.3c-18.8,0-27.8,14.4-27.8,34.2c0,22.8,11.2,33.8,30.9,33.8 C869.1,110.3,876.4,107.7,880.9,104.6z M855.9,54.5c7.7,0,10,6.4,10,14.6v1.3h-21.6C844.7,60,848.4,54.5,855.9,54.5z M936.6,55.8 V43.6h-51.9v12.2H903V109h15.5V55.8H936.6z"></path></svg>